<?xml version="1.0" encoding="utf-8" ?><svg xmlns="http://www.w3.org/2000/svg" xmlns:xlink="http://www.w3.org/1999/xlink" width="1024" height="1024" viewBox="0 0 1024 1024"><path fill="#0D0C0C" d="M393.995 338.669C393.362 328.531 392.605 318.007 392.343 307.913C391.578 278.426 397.75 242.128 417.704 219.409C438.389 195.857 472.079 180.101 503.138 178.233C537.866 176.326 571.932 188.282 597.85 211.475C621.393 232.353 628.872 257.875 630.846 288.374C631.622 300.379 631.129 318.169 628.234 329.745C632.903 330.438 637.744 331.379 640.507 335.68C654.354 357.243 639.319 392.907 621.721 408.035C616.856 412.216 609.804 411.469 604.233 410.8C598.249 429.158 588.712 455.966 591.576 474.779C605.865 478.367 617.513 484.193 625.518 497.222C630.657 505.586 631.067 512.443 633.555 521.171C647.938 528.154 663.313 533.162 677.903 539.762C687.734 544.21 699.292 547.896 708.87 552.841C741.571 569.721 782.361 579.837 808.255 606.983C825.876 625.457 834.837 648.111 843.09 671.58C852.293 697.449 858.024 723.512 865.858 749.674C871.787 769.471 879.085 789.372 885.464 809.077C889.255 820.787 893.127 831.675 896.127 843.674C897.949 850.958 896.683 857.534 897.835 863.37C899.885 873.758 903.803 875.761 902.977 887.712C898.772 894.356 891.25 897.186 884.258 900.573C888.986 918.129 894.796 1007.64 891.202 1024L886.075 1024C884.786 1011.21 885.404 993.986 884.865 980.575C883.708 954.791 881.504 929.064 878.257 903.459C845.057 918.116 809.815 928.611 773.644 932.135C776.106 941.54 778.676 950.917 781.353 960.263C784.153 969.85 788.435 982.492 789.244 992.163C789.752 998.236 788.602 1019.01 786.137 1024L781.446 1024C779.269 1014.41 783.619 1001.84 782.407 992.199C781.31 983.47 777.913 973.358 775.389 964.802C772.207 954.08 769.163 943.317 766.26 932.516C755.839 925.047 758.934 921.324 753.746 910.678C751.89 906.869 746.798 901.618 744.778 897.868C737.145 883.702 729.564 864.216 726.733 848.486C725.626 842.32 724.938 836.087 724.673 829.829C724.23 819.687 724.528 777.3 729.166 770.571C730.792 769.647 729.929 769.877 731.872 769.955C736.52 773.103 733.181 787.205 732.529 793.085C728.151 832.615 734.086 870.42 757.347 903.601C799.842 898.482 853.929 880.882 890.847 859.084C889.27 838.991 883.107 823.634 876.679 804.709C870.692 787.55 864.95 770.308 859.452 752.986C848.828 718.351 842.699 685.377 827.97 651.625C806.101 601.511 780.909 593.674 735.705 573.025C703.313 557.936 670.439 543.901 637.137 530.942C637.491 550.301 631.897 570.1 621.507 586.495C613.954 598.413 599.205 616.487 586.596 623.056C579.128 618.719 576.271 611.267 569.443 606.23C561.742 600.549 554.861 601.049 546.169 602.151C541.766 611.594 536.561 620.786 532.062 630.443C523.501 649.182 516.707 668.678 511.766 688.678C503.824 721.42 501.558 752.288 496.61 785.246C495.907 789.931 449.902 786.884 445.222 784.425C443.685 782.557 443.165 779.3 443.263 776.939C444.85 738.567 447.9 692.317 475.373 663.244C464.895 652.249 431.847 632.868 422.325 618.748C420.889 616.618 424.694 609.657 425.957 607.172C421.474 603.966 417.765 600.749 412.976 597.561C405.928 607.849 402.119 628.864 393.659 601.993C386.509 579.284 388.185 560.787 392.549 538.003C375.862 545.476 352.869 553.106 335.279 558.972C299.466 570.812 253.377 583.794 231.093 616.847C206.251 654.33 201.008 700.623 189.794 743.201C181.562 774.453 172.014 805.057 165.389 836.697C164.153 842.603 163.758 847.7 164.844 853.596C177.562 865.585 219.068 879.844 236.907 883.931C244.852 885.752 259.066 887.622 267.222 888.093C265.472 871.92 262.958 855.678 260.67 839.562L252.214 780.087L248.109 752.524C247.388 747.849 242.463 725.967 248.073 724.481C250.741 726.142 251.547 728.512 251.974 731.46C253.704 743.396 255.512 755.351 257.293 767.278C262.906 804.908 268.225 842.581 273.249 880.294C276.433 903.541 280.974 931.382 281.826 954.546C282.266 966.492 279.194 1013.22 275.203 1024L270.791 1024C269.268 1020.24 272.175 995.338 273.16 989.848C277.641 964.887 272.688 943.768 271.885 919.334C266.047 918.954 260.422 919.465 254.149 918.984C233.522 917.404 211.485 911.993 192.26 904.39C191.769 914.116 190.907 924.139 188.679 933.627C185.511 947.122 181.473 960.059 178.443 973.655C174.649 990.68 173.11 1006.79 170.868 1024L164.967 1024C164.822 1009.55 167.224 996.164 169.69 981.986C174.36 955.125 185.084 929.644 185.066 902.008C175.573 898.202 157.403 891.384 152.315 881.869C148.842 875.375 155.57 863.087 158.482 856.628C157.419 850.246 157.171 844.881 158.401 838.439C164.997 803.88 175.323 770.481 184.3 736.437C195.32 694.64 201.441 647.206 226.657 610.958C249.205 578.546 293.102 565.093 328.97 553.32C345.684 548.012 362.229 542.19 378.582 535.861C383.216 534.018 391.102 530.964 395.461 528.778C402.869 511.734 411.696 495.953 428.391 486.158C428.364 483.526 428.405 480.44 428.277 477.849C424.215 471.794 419.625 466.105 415.558 460.026C405.196 444.535 401.952 430.457 398.438 412.72C390.9 404.653 388.028 389.622 385.626 378.63C382.994 366.588 373.825 340.236 392.248 338.81L393.995 338.669ZM561.77 473.4C581.905 457.62 588.839 442.581 594.669 418.242C595.693 413.964 597.103 407.594 599.559 403.858C607.054 401.553 611.599 407.378 618.724 401.134C630.125 391.363 636.805 374.529 638.781 360.064C639.551 354.427 638.775 343.648 635.293 340.299C622.783 328.264 608.278 352.096 605.615 362.727C604.73 366.262 601.083 369.303 598.298 369.301C593.744 366.379 595.775 357.869 596.505 353.511C599.427 336.05 600.743 316.589 589.028 301.87C586.858 299.144 584.439 295.738 583.456 292.391C579.429 279.19 592.839 253.091 578.083 244.023C557.994 231.679 507.393 226.089 484.782 228.28C467.218 229.141 430.37 231.044 418.494 244.465C408.46 255.804 399.094 289.772 399.385 304.649C399.875 329.699 401.432 358.344 402.629 383.437C404.035 412.895 409.467 443.96 429.094 466.851C435.416 474.516 437.722 478.526 446.05 485.831C459.467 497.602 476.28 503.999 494.223 502.576C514.942 500.933 535.682 491.956 552.669 480.236C554.142 479.22 560.649 474.589 561.77 473.4ZM435.528 485.392C435.307 497.421 434.77 509.443 433.918 521.444C432.142 545.508 426.853 572.977 437.661 595.983C440.009 600.981 449.958 611.321 453.89 616.231C460.45 623.958 466.553 632.061 472.166 640.501C474.441 643.911 479.782 652.702 481.979 655.465C490.753 643.578 500.102 633.046 510.166 622.197C537.901 592.297 573.605 564.579 590.527 526.531C584.193 510.089 584.735 492.843 584.457 475.502C584.423 473.39 584.659 463.285 583.984 462.497C573.452 473.7 563.512 482.849 550.262 490.886C516.901 511.121 472.475 520.156 441.336 491.017C439.379 489.163 437.443 487.288 435.528 485.392ZM452.542 761.893C465.866 762.577 479.195 763.161 492.528 763.642C495.64 739.997 498.371 716.507 503.761 693.225C508.536 672.602 514.602 652.173 523.2 632.78C526.905 624.424 531.076 616.278 535.339 608.192C535.195 607.947 535.05 607.701 534.906 607.456C511.825 628.862 489.67 654.868 471.579 680.645C456.09 702.714 453.288 732 450.788 758.073C450.635 759.695 450.606 760.375 451.523 761.588L452.542 761.893ZM163.181 862.218C161.677 866.632 159.01 873.768 158.038 878.1C172.885 893.522 217.401 905.928 238.911 909.891C247.663 911.504 258.593 912.008 267.489 912.209L271.227 912.024C270.226 906.589 269.486 900.274 268.4 895.089C231.198 892.063 195.027 882.266 163.181 862.218ZM400.667 590.615C401.165 588.893 401.164 588.227 402.597 587.172C410.143 584.702 422.454 596.863 429.611 599.893L430.43 600.25L430.314 599.466C428.599 588.338 423.997 576.953 424.069 565.379C424.125 556.308 425.222 546.642 426.061 537.585C426.913 528.431 427.53 519.257 427.913 510.072C428.055 506.984 428.543 497.27 427.991 494.489C424.58 497.678 421.225 500.837 418.112 504.325C395.502 529.659 389.734 572.1 401.518 603.544L405.693 594.856C403.165 593.435 402.462 592.912 400.667 590.615ZM491.15 780.394C491.475 777.35 491.937 773.793 492.066 770.777L450.318 768.91C450.088 773.35 450.217 775.01 450.611 779.415C456.89 779.451 487.992 781.027 491.15 780.394ZM429.429 616.436C437.51 624.074 445.598 630.651 454.414 637.409C457.058 639.436 461.901 643.573 464.5 645.188C465.739 646.084 467.294 647.277 468.56 648.055C463.927 640.79 440.751 608.763 435.221 605.66C433.457 609.014 430.987 613.186 429.429 616.436ZM591.484 481.524C591.538 491.696 592.145 506.951 594.909 516.512C596.887 516.793 598.343 516.751 599.848 517.994C602.202 522.169 597.385 529.652 595.398 533.598C583.586 557.057 564.906 574.958 548.193 594.675C564.503 594.503 571.463 596.276 582.457 608.843L587.226 614.617C609.079 595.951 627.642 570.899 630.297 540.75C630.688 536.314 631.135 530.583 628.663 526.716C625.895 522.6 625.402 518.997 624.636 514.255C621.712 496.141 607.901 486.849 591.484 481.524ZM760.745 910.302C762.524 915.028 764.771 920.923 767.335 925.248C777.446 924.886 787.513 923.735 797.446 921.807C820.72 917.288 878.419 899.873 896.327 884.865C895.757 881.938 893.233 869.099 891.244 867.409L890.626 867.376C857.497 885.23 823.89 897.942 786.977 906.202C777.768 908.263 769.617 908.764 760.745 910.302ZM390.013 345.185C385.758 354.586 391.656 377.135 395.073 386.46L395.488 386.016C395.138 379.516 394.981 373.006 395.017 366.497C395.036 361.835 396.051 349.229 392.733 346.061C391.474 345.58 391.318 345.462 390.013 345.185Z"/><path fill="#0D0C0C" d="M521.828 417.702C531.933 416.253 527.809 426.99 525.129 432.136C511.779 457.767 480.626 461.21 458.38 447.457C453.53 443.59 441.985 431.001 444.73 423.116C445.224 421.919 447.724 420.998 448.875 421.092C473.492 423.096 497.239 420.165 521.828 417.702ZM452.819 428.609C455.573 433.78 457.824 437.385 462.454 441.171C481.43 453.964 505.727 449.644 518.258 430.239C519.279 428.657 520.121 427.257 520.011 425.333C518.747 424.909 519.217 424.943 517.923 425.214C492 428.4 479.556 429.127 452.819 428.609Z"/><path fill="#0D0C0C" d="M470.964 337.172C475.974 338.239 477.3 341.614 476.797 346.293C475.456 358.797 470.279 371.3 466.919 383.399C460.017 408.255 487.846 390.033 492.453 397.824C492.191 399.829 492.33 399.156 490.966 400.943C485.533 403.041 471.536 405.578 466.476 403.45C449.902 396.479 465.733 367.96 468.191 356.141C469.655 349.102 468.837 343.314 470.964 337.172Z"/><path fill="#0D0C0C" d="M529.971 305.2C541.611 304.113 563.216 307.173 568.593 320.154C568.981 321.09 568.659 321.421 568.209 322.178C563.706 324.027 556.953 318.349 552.797 316.666C550.965 315.923 549.598 315.584 547.698 315.11C537.846 312.941 527.54 314.456 518.067 317.305C514.358 318.236 507.052 320.87 506.078 314.961C504.794 307.175 525.17 305.728 529.971 305.2Z"/><path fill="#0D0C0C" d="M432.776 307.713C438.992 307.011 459.99 309.228 461.464 316.794C460.943 318.568 459.277 320.601 457.381 320.356C448.005 319.147 440.465 316.503 430.804 316.502C426.778 316.872 425.916 317.123 422.164 318.185C417.632 319.467 409.684 325.242 405.519 323.964C401.803 319.145 409.776 314.667 413.205 312.814C419.448 309.439 425.822 308.358 432.776 307.713Z"/><path fill="#0D0C0C" d="M435.385 336.697C440.643 335.437 445.933 338.656 447.23 343.906C448.527 349.155 445.345 354.467 440.104 355.801C434.812 357.148 429.435 353.927 428.126 348.625C426.816 343.323 430.074 337.969 435.385 336.697Z"/><path fill="#0D0C0C" d="M531.164 335.778C536.351 334.977 541.235 338.44 542.198 343.598C543.161 348.757 539.855 353.748 534.729 354.873C531.267 355.633 527.666 354.447 525.332 351.779C522.998 349.111 522.302 345.384 523.516 342.054C524.73 338.723 527.661 336.318 531.164 335.778Z"/><path fill="#0D0C0C" d="M213.028 944.818C218.62 945.968 224.549 952.669 229.365 956.265C233.436 959.304 246.501 961.296 248.233 964.323C248.426 966.058 247.737 966.869 246.884 968.423C237.149 969.5 205.284 956.503 213.028 944.818Z"/></svg>